<svg xmlns="http://www.w3.org/2000/svg" width="1800" height="1062" viewBox="0 0 1800 1062"><rect width="100%" height="100%" fill="#000"/><style>.url{font:20px monospace;fill:#dff;text-decoration:underline}.check{font:24px sans-serif;fill:#18d45c}</style><text x="18" y="42" class="check">✓</text><a href="https://A.Bugs.Life.1998.1080p.BluRay.x265.CZ"><text x="48" y="42" class="url">https://A.Bugs.Life.1998.1080p.BluRay.x265.CZ</text></a><text x="18" y="72" class="check">✓</text><a href="https://A.Charlie.Brown.Ch"><text x="48" y="72" class="url">https://A.Charlie.Brown.Ch</text></a><text x="18" y="102" class="check">✓</text><a href="https://Grease.1978.720p.BrRip.x264.De"><text x="48" y="102" class="url">https://Grease.1978.720p.BrRip.x264.De</text></a><text x="18" y="132" class="check">✓</text><a href="https://Shang.Ch"><text x="48" y="132" class="url">https://Shang.Ch</text></a><text x="18" y="162" class="check">✓</text><a href="https://Venom.Let.There.Be.Ca"><text x="48" y="162" class="url">https://Venom.Let.There.Be.Ca</text></a><text x="18" y="192" class="check">✓</text><a href="https://West.Si"><text x="48" y="192" class="url">https://West.Si</text></a><text x="18" y="222" class="check">✓</text><a href="https://White.Men.Ca"><text x="48" y="222" class="url">https://White.Men.Ca</text></a><text x="18" y="252" class="check">✓</text><a href="https://the.Ch"><text x="48" y="252" class="url">https://the.Ch</text></a><text x="18" y="282" class="check">✓</text><a href="https://X-Men.The.La"><text x="48" y="282" class="url">https://X-Men.The.La</text></a><text x="18" y="312" class="check">✓</text><a href="https://The.In"><text x="48" y="312" class="url">https://The.In</text></a><text x="18" y="342" class="check">✓</text><a href="https://Monsters.In"><text x="48" y="342" class="url">https://Monsters.In</text></a><text x="18" y="372" class="check">✓</text><a href="https://Avengers.In"><text x="48" y="372" class="url">https://Avengers.In</text></a><text x="18" y="402" class="check">✓</text><a href="https://Adventure.Time.Fionna.and.Cake.S01.COM"><text x="48" y="402" class="url">https://Adventure.Time.Fionna.and.Cake.S01.COM</text></a><text x="18" y="432" class="check">✓</text><a href="https://The.Fast.and.the.Furious.To"><text x="48" y="432" class="url">https://The.Fast.and.the.Furious.To</text></a><text x="18" y="462" class="check">✓</text><a href="https://Arcane.S01.COM"><text x="48" y="462" class="url">https://Arcane.S01.COM</text></a><text x="18" y="492" class="check">✓</text><a href="https://Arcane.S02.COM"><text x="48" y="492" class="url">https://Arcane.S02.COM</text></a><text x="18" y="522" class="check">✓</text><a href="https://Alvin.And.The.Chipmunks.The.Road.Ch"><text x="48" y="522" class="url">https://Alvin.And.The.Chipmunks.The.Road.Ch</text></a><text x="18" y="552" class="check">✓</text><a href="https://Diary.Of.A.Wimpy.Kid.Rodrick.Ru"><text x="48" y="552" class="url">https://Diary.Of.A.Wimpy.Kid.Rodrick.Ru</text></a><text x="18" y="582" class="check">✓</text><a href="https://Despicable.Me"><text x="48" y="582" class="url">https://Despicable.Me</text></a><text x="18" y="612" class="check">✓</text><a href="https://I.Know.What.You.Did.La"><text x="48" y="612" class="url">https://I.Know.What.You.Did.La</text></a><text x="18" y="642" class="check">✓</text><a href="https://Indiana.Jones.and.the.Dial.of.De"><text x="48" y="642" class="url">https://Indiana.Jones.and.the.Dial.of.De</text></a><text x="18" y="672" class="check">✓</text><a href="https://Tyler.Perrys.A.Madea.Ch"><text x="48" y="672" class="url">https://Tyler.Perrys.A.Madea.Ch</text></a><text x="18" y="702" class="check">✓</text><a href="https://The.Lion.King.2.Si"><text x="48" y="702" class="url">https://The.Lion.King.2.Si</text></a><text x="18" y="732" class="check">✓</text><a href="https://The.Me"><text x="48" y="732" class="url">https://The.Me</text></a><text x="18" y="762" class="check">✓</text><a href="https://Trolls.Band.To"><text x="48" y="762" class="url">https://Trolls.Band.To</text></a><text x="18" y="792" class="check">✓</text><a href="https://Who.Framed.Ro"><text x="48" y="792" class="url">https://Who.Framed.Ro</text></a><text x="18" y="822" class="check">✓</text><a href="https://Beetlejuice.Be"><text x="48" y="822" class="url">https://Beetlejuice.Be</text></a><text x="18" y="852" class="check">✓</text><a href="https://A.Ch"><text x="48" y="852" class="url">https://A.Ch</text></a><text x="18" y="882" class="check">✓</text><a href="https://Back.to"><text x="48" y="882" class="url">https://Back.to</text></a><text x="18" y="912" class="check">✓</text><a href="https://White.Ch"><text x="48" y="912" class="url">https://White.Ch</text></a><text x="18" y="942" class="check">✓</text><a href="https://Fight.Cl"><text x="48" y="942" class="url">https://Fight.Cl</text></a><text x="18" y="972" class="check">✓</text><a href="https://Puss.in.Boots.The.La"><text x="48" y="972" class="url">https://Puss.in.Boots.The.La</text></a><text x="18" y="1002" class="check">✓</text><a href="https://Blue.Be"><text x="48" y="1002" class="url">https://Blue.Be</text></a></svg>